<svg width="376" height="384" viewBox="0 0 376 384" fill="none" xmlns="http://www.w3.org/2000/svg">
<path opacity="0.1" d="M363.038 184.633C357.039 184.382 351.811 188.978 350.264 195.364C340.965 195.98 330.348 196.098 318.706 195.212C312.231 194.708 306.078 193.948 300.327 193.029C300.372 191.909 300.402 190.777 300.416 189.645C300.484 184.138 300.151 178.72 299.482 173.415C302.447 171.174 306.147 168.825 310.625 166.829C318.378 163.338 325.608 162.153 331.183 161.855C333.835 168.174 340.063 171.908 346.084 170.389C352.874 168.68 356.847 160.977 354.931 153.182C353.031 145.385 346.004 140.439 339.215 142.148C333.034 143.712 329.186 150.247 329.994 157.299C325.091 160.046 317.808 163 308.835 163.114C304.412 163.178 300.541 162.528 297.406 161.713C295.512 153.467 292.752 145.554 289.188 138.08C293.094 134.589 297.704 130.894 303.096 127.338C310.901 122.174 318.417 118.504 325.01 115.882C329.226 121.007 336.02 122.777 341.325 119.753C347.418 116.287 349.214 107.781 345.357 100.774C341.5 93.7686 333.41 90.9089 327.317 94.3845C322.028 97.3981 319.965 104.214 322.059 110.539C316.37 114.904 309.386 119.501 301.019 123.574C295.334 126.359 289.896 128.463 284.976 130.053C281.053 123.2 276.455 116.797 271.258 110.941C273.377 103.513 276.899 94.8514 282.832 86.195C288.407 78.1019 294.545 72.2199 299.751 68.0959C305.39 71.7398 312.547 71.2729 316.675 66.6168C321.369 61.3431 320.421 52.7094 314.533 47.3303C308.676 41.9386 300.121 41.8434 295.443 47.1189C291.315 51.775 291.546 59.0326 295.711 64.3776C292.306 69.9282 287.177 76.8007 279.69 83.315C271.429 90.5026 263.172 94.7658 256.883 97.2838C249.832 91.665 242.133 86.8751 233.895 83.0599C235.133 79.6886 236.771 76.301 238.903 72.9779C240.612 70.3438 242.444 68.0308 244.288 66.013C250.561 68.6964 257.655 66.9084 260.898 61.4872C264.548 55.4335 262.032 47.1212 255.283 42.935C248.534 38.7472 240.118 40.2593 236.468 46.3243C233.274 51.6537 234.832 58.7249 239.837 63.1979C238.749 66.0164 237.436 68.9376 235.867 71.9124C234.085 75.3355 232.163 78.4861 230.132 81.3968C229.29 81.0443 228.464 80.7048 227.622 80.388C217.804 76.5161 207.315 74.0178 196.359 73.0806C194.616 68.1286 193.119 62.6461 192.091 56.6324C190.007 44.3615 190.553 33.7106 191.688 25.7204C198.152 24.5443 203.035 19.4628 203.111 13.3021C203.198 6.20239 196.868 0.368524 188.967 0.271649C181.051 0.174579 174.564 5.85129 174.477 12.951C174.4 19.2171 179.332 24.4903 185.926 25.7098C187.265 33.6152 188.072 44.667 185.712 57.4382C184.654 63.0597 183.138 68.1762 181.389 72.8032C170.864 73.2758 160.735 75.213 151.15 78.4171C149.851 76.257 148.682 73.9915 147.645 71.3238C145.602 66.0405 144.753 61.1027 144.436 56.997C150.653 53.8051 153.913 46.9892 151.817 40.8991C149.505 34.2015 141.579 30.9303 134.108 33.5959C126.652 36.2618 122.472 43.8512 124.801 50.5507C126.805 56.3298 132.975 59.5471 139.42 58.6092C141.255 62.5584 143.003 67.1066 144.345 72.2661C145.078 74.9983 145.604 77.668 146.003 80.2777C137.293 83.6596 129.113 88.1087 121.577 93.4611C117.686 90.5248 113.705 87.1234 109.778 83.147C100.744 73.9908 94.7602 64.6401 90.8451 57.1621C95.3434 52.2283 96.2132 45.0961 92.5546 40.1303C88.362 34.4477 79.8302 33.7494 73.4975 38.5683C67.1807 43.389 65.4481 51.9007 69.6247 57.5816C73.3465 62.6016 80.4205 63.7231 86.3972 60.5915C92.1106 65.9279 99.5264 74.3246 105.19 86.3346C107.788 91.8274 109.575 97.1595 110.823 102.127C109.612 103.231 108.385 104.37 107.205 105.533C101.307 111.402 96.0066 117.916 91.4503 124.978C88.8262 124.176 86.1083 123.21 83.3292 122.034C74.2929 118.207 67.3122 113.384 62.2553 109.195C64.5047 102.803 62.4668 95.8519 57.1088 92.7825C51.0376 89.2939 42.9572 92.1403 39.0721 99.1398C35.171 106.136 36.9505 114.637 43.0537 118.124C48.3957 121.191 55.2824 119.358 59.5131 114.116C65.6793 116.368 73.3616 119.954 81.2558 125.784C83.613 127.526 85.7621 129.314 87.7675 131.11C81.3213 142.575 76.7596 155.279 74.5027 168.797C69.0542 169.203 63.1779 169.358 56.8757 169.082C47.8772 168.692 39.766 167.52 32.6805 166.038C32.6077 158.953 28.0199 152.967 21.7076 152.215C14.7577 151.387 8.3811 157.186 7.45316 165.166C6.54118 173.146 11.4183 180.284 18.3522 181.109C24.537 181.845 30.2434 177.328 32.0966 170.702C39.3729 170.941 47.5368 171.703 56.3762 173.36C62.508 174.507 68.1574 175.944 73.39 177.528C73.0969 180.601 72.947 183.71 72.9085 186.856C72.8169 194.327 73.4136 201.641 74.6675 208.741C68.5846 212.719 60.2284 217.213 49.6067 220.311C40.2987 223.027 31.9393 223.888 25.2811 224.014C22.9642 217.686 17.0748 213.684 11.043 214.789C4.17928 216.051 -0.2698 223.481 1.13382 231.388C2.53741 239.295 9.25577 244.681 16.1195 243.419C22.0713 242.328 26.18 236.625 26.2773 229.993C33.1203 227.826 41.1904 225.811 50.3529 224.548C60.8746 223.097 70.3104 222.986 78.2546 223.434C81.311 233.248 85.6676 242.485 91.0711 250.957C88.4438 253.016 85.5295 255.043 82.2338 256.931C75.9478 260.549 69.9342 262.773 64.7127 264.195C61.2713 258.445 54.7282 255.686 49.0175 257.948C42.5207 260.535 39.5632 268.696 42.4407 276.174C44.2508 280.867 47.9295 284.192 52.0337 285.363C54.4515 286.064 57.0223 286.014 59.4446 285.053C60.1505 284.767 60.8412 284.408 61.4691 283.98C66.2325 280.856 68.3245 274.284 66.4066 267.966C71.3541 265.449 77.1314 262.967 83.7651 260.943C88.0432 259.646 92.1094 258.71 95.9331 258.024C99.3565 262.639 103.134 266.977 107.188 270.988C107.566 271.37 107.961 271.753 108.339 272.11C105.485 278.374 101.209 285.977 94.8096 293.66C88.5395 301.18 82.0554 306.631 76.5968 310.471C71.2339 306.498 64.1302 306.495 59.7192 310.817C54.6782 315.744 55.0506 324.431 60.5509 330.219C66.0194 335.994 74.5672 336.69 79.5923 331.761C83.9708 327.485 84.2655 320.366 80.6623 314.79C84.9769 309.215 90.5933 302.939 97.7408 296.763C105.437 290.134 112.999 285.249 119.588 281.661C128.163 288.017 137.661 293.194 147.816 296.94C147.369 300.839 146.631 305.04 145.443 309.45C142.867 319.056 139.102 326.735 135.696 332.38C129.152 330.965 122.635 333.929 120.345 339.728C117.758 346.314 121.606 354.075 128.944 357.067C136.266 360.058 144.316 357.137 146.935 350.54C149.192 344.812 146.591 338.198 141.032 334.614C142.696 327.781 145.302 319.709 149.367 311.054C151.366 306.834 153.472 302.99 155.622 299.49C163.465 301.745 171.636 303.167 180.091 303.635C181.381 310.376 182.407 317.912 182.848 326.139C183.512 338.378 182.725 349.198 181.467 358.123C175.035 359.307 170.167 364.389 170.092 370.535C170.005 377.635 176.335 383.467 184.268 383.564C192.168 383.661 198.639 377.986 198.726 370.886C198.801 364.764 194.092 359.575 187.723 358.211C186.766 349.058 186.324 338.249 187.078 326.191C187.593 318.057 188.595 310.557 189.827 303.778C198.674 303.544 207.262 302.27 215.478 300.07C216.165 301.304 216.836 302.587 217.49 303.906C221.837 312.604 224.132 320.737 225.346 327.238C219.606 330.53 216.621 337.028 218.609 342.88C220.857 349.594 228.766 352.924 236.253 350.325C243.724 347.716 247.967 340.16 245.703 333.445C243.7 327.487 237.243 324.198 230.589 325.344C227.605 319.988 224.16 311.912 223.058 301.614C222.914 300.338 222.817 299.088 222.768 297.859C231.921 294.763 240.562 290.493 248.529 285.235C253.568 289.508 258.87 294.597 264.127 300.631C272.219 309.907 278.077 319.027 282.293 326.768C277.858 331.691 277.021 338.771 280.648 343.71C284.857 349.388 293.373 350.083 299.705 345.264C306.022 340.448 307.755 331.941 303.578 326.252C299.951 321.347 293.085 320.153 287.207 323.043C280.998 316.49 274.123 308.209 267.527 298.054C263.266 291.49 259.752 285.127 256.872 279.157C260.08 276.59 263.147 273.855 266.088 270.954C270.871 266.201 275.261 261.029 279.16 255.486C286.206 257.578 294.326 260.615 302.923 265.131C311.218 269.469 318.12 274.212 323.669 278.62C321.469 284.892 323.397 291.733 328.627 294.84C334.649 298.441 342.775 295.733 346.787 288.812C350.799 281.878 349.148 273.353 343.126 269.751C337.864 266.61 330.964 268.284 326.655 273.397C320.428 270.9 312.875 267.141 305.075 261.418C296.975 255.48 290.875 249.142 286.472 243.685C289.559 237.968 292.187 231.949 294.307 225.676C297.69 225.836 301.277 226.186 304.973 226.798C314.516 228.378 322.447 231.222 328.542 234.033C327.933 240.75 331.593 246.952 337.495 248.57C344.241 250.422 351.387 245.637 353.462 237.879C355.52 230.119 351.737 222.335 344.975 220.483C339.057 218.851 332.804 222.362 329.967 228.518C323.477 227.897 315.147 226.343 306.078 222.648C302.647 221.237 299.473 219.676 296.588 218.048C298.112 212.23 299.207 206.237 299.809 200.088C305.705 199.677 311.965 199.447 318.557 199.515C330.177 199.623 340.733 200.601 349.991 201.965C351.029 208.454 355.869 213.444 361.852 213.707C368.84 213.992 374.775 207.719 375.081 199.691C375.403 191.663 370.011 184.919 363.038 184.633Z" fill="#FA5652"/>
</svg>
